<svg width="1025" height="387" viewBox="0 0 1025 387" fill="none" xmlns="http://www.w3.org/2000/svg">
<path d="M897.481 360.004L965.399 137.682H1025L924.741 425.27C922.431 431.42 919.428 438.108 915.731 445.335C912.035 452.561 907.184 459.403 901.178 465.86C895.325 472.471 888.01 477.776 879.232 481.773C870.453 485.924 859.826 488 847.352 488C842.424 488 837.649 487.539 833.029 486.616C828.563 485.848 824.328 485.002 820.323 484.079L820.092 441.645C821.633 441.798 823.481 441.952 825.637 442.106C827.947 442.26 829.795 442.336 831.181 442.336C840.422 442.336 848.122 441.183 854.282 438.877C860.443 436.725 865.448 433.188 869.298 428.268C873.302 423.348 876.69 416.737 879.462 408.435L897.481 360.004ZM859.133 137.682L918.504 324.488L928.437 383.066L889.858 392.983L799.07 137.682H859.133Z" fill="url(#paint0_linear_14585_734)"/>
<path d="M722.374 137.682V181.962H599.014V137.682H722.374ZM612.182 137.682V387.217H556.508V137.682H612.182ZM766.036 137.682V387.217H710.131V137.682H766.036Z" fill="url(#paint1_linear_14585_734)"/>
<path d="M341.898 306.038L440.078 137.682H495.752V387.217H440.078V218.631L341.898 387.217H286.224V137.682H341.898V306.038Z" fill="url(#paint2_linear_14585_734)"/>
<path d="M237.711 18.9112L248.8 50.5066C232.937 55.8878 222.003 65.4203 215.996 79.104C210.144 92.7877 207.218 108.47 207.218 126.151V173.66C207.218 189.035 203.907 203.026 197.284 215.633C190.816 228.241 180.497 238.234 166.329 245.614C152.16 252.994 133.602 256.684 110.655 256.684V224.858C126.518 224.858 137.914 220.246 144.844 211.021C151.775 201.796 155.24 189.342 155.24 173.66V126.151C155.24 110.008 157.704 94.9401 162.632 80.949C167.715 66.804 176.262 54.4272 188.275 43.8185C200.287 33.0561 216.766 24.7536 237.711 18.9112ZM248.8 439.338L237.711 471.164C216.766 465.168 200.287 456.789 188.275 446.026C176.262 435.418 167.715 423.041 162.632 408.896C157.704 394.905 155.24 379.837 155.24 363.694V316.646C155.24 306.038 153.7 296.967 150.62 289.433C147.54 281.745 142.688 275.826 136.066 271.675C129.598 267.37 121.127 265.217 110.655 265.217V233.161C133.602 233.161 152.16 236.928 166.329 244.461C180.497 251.841 190.816 261.835 197.284 274.442C203.907 286.896 207.218 300.964 207.218 316.646V363.694C207.218 375.532 208.45 386.449 210.914 396.442C213.532 406.59 217.844 415.353 223.851 422.733C230.011 430.113 238.327 435.648 248.8 439.338Z" fill="url(#paint3_linear_14585_734)"/>
<path d="M93.5598 0V42.896H55.6739V419.274H93.5598V462.401H0V0H93.5598Z" fill="url(#paint4_linear_14585_734)"/>
<defs>
<linearGradient id="paint0_linear_14585_734" x1="-338.058" y1="1.62297e-05" x2="1069.78" y2="814.618" gradientUnits="userSpaceOnUse">
<stop stop-color="#0056FE"/>
<stop offset="1" stop-color="#3479FF"/>
</linearGradient>
<linearGradient id="paint1_linear_14585_734" x1="-338.058" y1="1.62297e-05" x2="1069.78" y2="814.618" gradientUnits="userSpaceOnUse">
<stop stop-color="#0056FE"/>
<stop offset="1" stop-color="#3479FF"/>
</linearGradient>
<linearGradient id="paint2_linear_14585_734" x1="-338.058" y1="1.62297e-05" x2="1069.78" y2="814.618" gradientUnits="userSpaceOnUse">
<stop stop-color="#0056FE"/>
<stop offset="1" stop-color="#3479FF"/>
</linearGradient>
<linearGradient id="paint3_linear_14585_734" x1="-338.058" y1="1.62297e-05" x2="1069.78" y2="814.618" gradientUnits="userSpaceOnUse">
<stop stop-color="#0056FE"/>
<stop offset="1" stop-color="#3479FF"/>
</linearGradient>
<linearGradient id="paint4_linear_14585_734" x1="-338.058" y1="1.62297e-05" x2="1069.78" y2="814.618" gradientUnits="userSpaceOnUse">
<stop stop-color="#0056FE"/>
<stop offset="1" stop-color="#3479FF"/>
</linearGradient>
</defs>
</svg>
