<?xml version="1.0" standalone="no"?>
<!DOCTYPE svg PUBLIC "-//W3C//DTD SVG 20010904//EN"
 "http://www.w3.org/TR/2001/REC-SVG-20010904/DTD/svg10.dtd">
<svg version="1.0" xmlns="http://www.w3.org/2000/svg"
 width="165.000000pt" height="165.000000pt" viewBox="0 0 165.000000 165.000000"
 preserveAspectRatio="xMidYMid meet">
<metadata>
Created by potrace 1.14, written by Peter Selinger 2001-2017
</metadata>
<g transform="translate(0.000000,165.000000) scale(0.100000,-0.100000)"
fill="#000000" stroke="none">
<path d="M700 1391 c-146 -48 -251 -161 -285 -308 -25 -105 3 -240 79 -392 32
-63 159 -260 197 -306 9 -11 40 -48 68 -82 29 -35 56 -63 61 -63 16 0 128 140
211 263 232 344 263 564 107 758 -38 47 -118 103 -178 124 -68 25 -194 28
-260 6z m191 -192 c118 -36 179 -185 122 -300 -77 -153 -292 -163 -377 -17
-102 175 59 375 255 317z"/>
</g>
</svg>
