<svg width="26" height="26" viewBox="0 0 26 26" fill="none" xmlns="http://www.w3.org/2000/svg">
<path fill-rule="evenodd" clip-rule="evenodd" d="M11.308 4.80875C11.7416 4.4562 12.3062 4.25 13 4.25C13.6938 4.25 14.2584 4.4562 14.692 4.80875C15.1142 5.15212 15.3621 5.59322 15.5089 5.98951C15.6085 6.25851 15.6673 6.52198 15.702 6.75H19.8229C20.3349 6.75 20.75 7.16506 20.75 7.67705C20.75 8.02819 20.5516 8.3492 20.2375 8.50623L19.75 8.75L18.3504 19.2085C18.2448 20.088 17.4987 20.75 16.6128 20.75H9.38717C8.50132 20.75 7.75518 20.088 7.64964 19.2085L6.25 8.75L5.76246 8.50623C5.44839 8.3492 5.25 8.02819 5.25 7.67705C5.25 7.16505 5.66506 6.75 6.17705 6.75H10.298C10.3327 6.52198 10.3915 6.25851 10.4911 5.98951C10.6379 5.59322 10.8858 5.15212 11.308 4.80875ZM11.8252 6.75H14.1748C14.1555 6.6704 14.1316 6.58973 14.1022 6.51049C14.0175 6.28178 13.8997 6.09788 13.7455 5.9725C13.6027 5.8563 13.3802 5.75 13 5.75C12.6198 5.75 12.3973 5.8563 12.2545 5.9725C12.1003 6.09788 11.9825 6.28178 11.8978 6.51049C11.8684 6.58973 11.8445 6.6704 11.8252 6.75ZM7.84538 8.25L9.13896 19.0298C9.15403 19.1554 9.26062 19.25 9.38717 19.25H16.6128C16.7394 19.25 16.846 19.1554 16.861 19.0298L18.1546 8.25H7.84538Z" fill="#A3ABC3"/>
<path fill-rule="evenodd" clip-rule="evenodd" d="M7 7.5H11H15H19L17.6057 19.1191C17.5454 19.6217 17.119 20 16.6128 20H9.38717C8.88097 20 8.45461 19.6217 8.3943 19.1191L7 7.5ZM12 17V11H10.5V17H12ZM15.5 17V11H14V17H15.5Z" fill="#A3ABC3"/>
</svg>
