<svg width="22" height="22" viewBox="0 0 22 22" fill="none" xmlns="http://www.w3.org/2000/svg">
<g filter="url(#filter0_i_17048_1669)">
<path d="M14.1943 0.8125L21.1875 4.33835V12.2014L19.916 11.5603V5.77073L14.8301 8.33498V10.9193L13.5586 11.5603V8.33498L8.47266 5.77073V8.0445L7.20117 7.40343V4.33835L14.1943 0.8125ZM14.1943 7.22313L15.9526 6.33166L11.3534 3.67725L9.2574 4.73901L14.1943 7.22313ZM17.3234 5.65053L19.1313 4.73901L14.1943 2.24488L12.7142 2.99612L17.3234 5.65053ZM12.2871 12.2014L11.0156 12.8425V12.8324L7.20117 14.7556V19.3132L11.0156 17.38V18.8224L6.56543 21.0661L0.84375 18.1713V11.4001L6.56543 8.51528L12.2871 11.4001V12.2014ZM5.92969 19.3132V14.7556L2.11523 12.8324V17.38L5.92969 19.3132ZM6.56543 13.6438L10.2309 11.8007L6.56543 9.94765L2.89998 11.8007L6.56543 13.6438ZM12.2871 13.6338L16.7373 11.39L21.1875 13.6338V18.9125L16.7373 21.1562L12.2871 18.9125V13.6338ZM16.1016 19.4033V16.3483L13.5586 15.0661V18.1212L16.1016 19.4033ZM19.916 18.1212V15.0661L17.373 16.3483V19.4033L19.916 18.1212ZM16.7373 15.2364L19.1313 14.0244L16.7373 12.8224L14.3433 14.0244L16.7373 15.2364Z" fill="#121212"/>
<path d="M14.1943 0.8125L21.1875 4.33835V12.2014L19.916 11.5603V5.77073L14.8301 8.33498V10.9193L13.5586 11.5603V8.33498L8.47266 5.77073V8.0445L7.20117 7.40343V4.33835L14.1943 0.8125ZM14.1943 7.22313L15.9526 6.33166L11.3534 3.67725L9.2574 4.73901L14.1943 7.22313ZM17.3234 5.65053L19.1313 4.73901L14.1943 2.24488L12.7142 2.99612L17.3234 5.65053ZM12.2871 12.2014L11.0156 12.8425V12.8324L7.20117 14.7556V19.3132L11.0156 17.38V18.8224L6.56543 21.0661L0.84375 18.1713V11.4001L6.56543 8.51528L12.2871 11.4001V12.2014ZM5.92969 19.3132V14.7556L2.11523 12.8324V17.38L5.92969 19.3132ZM6.56543 13.6438L10.2309 11.8007L6.56543 9.94765L2.89998 11.8007L6.56543 13.6438ZM12.2871 13.6338L16.7373 11.39L21.1875 13.6338V18.9125L16.7373 21.1562L12.2871 18.9125V13.6338ZM16.1016 19.4033V16.3483L13.5586 15.0661V18.1212L16.1016 19.4033ZM19.916 18.1212V15.0661L17.373 16.3483V19.4033L19.916 18.1212ZM16.7373 15.2364L19.1313 14.0244L16.7373 12.8224L14.3433 14.0244L16.7373 15.2364Z" fill="url(#paint0_linear_17048_1669)"/>
</g>
<defs>
<filter id="filter0_i_17048_1669" x="0.84375" y="0.8125" width="21.6967" height="21.6967" filterUnits="userSpaceOnUse" color-interpolation-filters="sRGB">
<feFlood flood-opacity="0" result="BackgroundImageFix"/>
<feBlend mode="normal" in="SourceGraphic" in2="BackgroundImageFix" result="shape"/>
<feColorMatrix in="SourceAlpha" type="matrix" values="0 0 0 0 0 0 0 0 0 0 0 0 0 0 0 0 0 0 127 0" result="hardAlpha"/>
<feOffset dx="1.35294" dy="1.35294"/>
<feGaussianBlur stdDeviation="2.02941"/>
<feComposite in2="hardAlpha" operator="arithmetic" k2="-1" k3="1"/>
<feColorMatrix type="matrix" values="0 0 0 0 0 0 0 0 0 0.37028 0 0 0 0 0.74056 0 0 0 0.4 0"/>
<feBlend mode="multiply" in2="shape" result="effect1_innerShadow_17048_1669"/>
</filter>
<linearGradient id="paint0_linear_17048_1669" x1="1.80266" y1="0.812499" x2="24.8957" y2="10.2208" gradientUnits="userSpaceOnUse">
<stop stop-color="#0050EC"/>
<stop offset="1" stop-color="#39C7EC"/>
</linearGradient>
</defs>
</svg>
