<svg width="23" height="23" viewBox="0 0 23 23" fill="none" xmlns="http://www.w3.org/2000/svg">
<g filter="url(#filter0_iii_17048_1674)">
<path d="M4.9811 15.0844C5.01013 14.8176 5.23877 14.6825 5.51124 14.6825H10.3719C10.5516 17.001 10.7001 18.8147 10.7001 18.8147H12.2997C12.2997 18.8147 12.445 17.001 12.6217 14.6825H17.4894C17.7619 14.6825 17.9906 14.8176 18.0196 15.0844L18.6981 18.9265L20.5583 18.7028L20.1402 14.8607C19.995 13.527 18.8518 12.5828 17.4894 12.5828H12.7811C12.8948 11.0785 13.0078 9.50039 13.0937 8.31641L9.89464 8.31641C9.98054 9.50039 10.0947 11.0785 10.21 12.5828H5.51124C4.14884 12.5828 3.00567 13.527 2.86052 14.8607L2.44238 18.7028L4.30226 18.9265L4.9811 15.0844Z" fill="#D0E2F3"/>
</g>
<g filter="url(#filter1_i_17048_1674)">
<path d="M6.77484 7.99981C6.83061 8.91397 7.42804 9.62199 8.34016 9.74052C9.04429 9.83202 10.0619 9.9082 11.4985 9.9082C12.9351 9.9082 13.9527 9.83202 14.6569 9.74052C15.569 9.62199 16.1664 8.91397 16.2222 7.99981C16.2621 7.34597 16.2939 6.42095 16.2939 5.13365C16.2939 3.84635 16.2621 2.92132 16.2222 2.26749C16.1664 1.35332 15.569 0.645305 14.6569 0.526776C13.9527 0.435276 12.9351 0.359096 11.4985 0.359096C10.0619 0.359096 9.04429 0.435275 8.34016 0.526776C7.42804 0.645305 6.83061 1.35332 6.77484 2.26749C6.73495 2.92132 6.70313 3.84635 6.70313 5.13365C6.70312 6.42095 6.73495 7.34597 6.77484 7.99981Z" fill="url(#paint0_linear_17048_1674)"/>
</g>
<g filter="url(#filter2_i_17048_1674)">
<path d="M16.8404 20.941C16.8663 21.8565 17.4604 22.5485 18.3783 22.6079C18.6859 22.6279 19.0539 22.6406 19.4922 22.6406C19.9305 22.6406 20.2986 22.6279 20.6062 22.6079C21.5241 22.5485 22.1182 21.8565 22.144 20.941C22.1516 20.6722 22.1563 20.3569 22.1563 19.9881C22.1563 19.6193 22.1516 19.3039 22.144 19.0352C22.1182 18.1197 21.5241 17.4277 20.6062 17.3683C20.2986 17.3483 19.9305 17.3356 19.4922 17.3356C19.0539 17.3356 18.6859 17.3483 18.3783 17.3683C17.4604 17.4277 16.8663 18.1197 16.8404 19.0352C16.8328 19.3039 16.8281 19.6193 16.8281 19.9881C16.8281 20.3569 16.8328 20.6722 16.8404 20.941Z" fill="url(#paint1_linear_17048_1674)"/>
</g>
<g filter="url(#filter3_i_17048_1674)">
<path d="M8.84823 20.941C8.87411 21.8565 9.46817 22.5485 10.3861 22.6079C10.6937 22.6279 11.0618 22.6406 11.5 22.6406C11.9383 22.6406 12.3064 22.6279 12.614 22.6079C13.5319 22.5485 14.126 21.8565 14.1519 20.941C14.1594 20.6722 14.1641 20.3569 14.1641 19.9881C14.1641 19.6193 14.1594 19.3039 14.1519 19.0352C14.126 18.1197 13.5319 17.4277 12.614 17.3683C12.3064 17.3483 11.9383 17.3356 11.5 17.3356C11.0618 17.3356 10.6937 17.3483 10.3861 17.3683C9.46817 17.4277 8.87411 18.1197 8.84823 19.0352C8.84064 19.3039 8.83594 19.6193 8.83594 19.9881C8.83594 20.3569 8.84064 20.6722 8.84823 20.941Z" fill="url(#paint2_linear_17048_1674)"/>
</g>
<g filter="url(#filter4_i_17048_1674)">
<path d="M0.856047 20.941C0.881922 21.8565 1.47598 22.5485 2.39389 22.6079C2.70149 22.6279 3.06957 22.6406 3.50786 22.6406C3.94614 22.6406 4.31422 22.6279 4.62182 22.6079C5.53973 22.5485 6.13379 21.8565 6.15966 20.941C6.16726 20.6722 6.17196 20.3569 6.17196 19.9881C6.17196 19.6193 6.16726 19.3039 6.15966 19.0352C6.13379 18.1197 5.53973 17.4277 4.62182 17.3683C4.31422 17.3483 3.94614 17.3356 3.50786 17.3356C3.06957 17.3356 2.70149 17.3483 2.39389 17.3683C1.47598 17.4277 0.881922 18.1197 0.856047 19.0352C0.848453 19.3039 0.84375 19.6193 0.84375 19.9881C0.84375 20.3569 0.848453 20.6722 0.856047 20.941Z" fill="url(#paint3_linear_17048_1674)"/>
</g>
<defs>
<filter id="filter0_iii_17048_1674" x="1.44238" y="6.31641" width="20.1162" height="13.6104" filterUnits="userSpaceOnUse" color-interpolation-filters="sRGB">
<feFlood flood-opacity="0" result="BackgroundImageFix"/>
<feBlend mode="normal" in="SourceGraphic" in2="BackgroundImageFix" result="shape"/>
<feColorMatrix in="SourceAlpha" type="matrix" values="0 0 0 0 0 0 0 0 0 0 0 0 0 0 0 0 0 0 127 0" result="hardAlpha"/>
<feOffset dx="1" dy="1"/>
<feGaussianBlur stdDeviation="1"/>
<feComposite in2="hardAlpha" operator="arithmetic" k2="-1" k3="1"/>
<feColorMatrix type="matrix" values="0 0 0 0 0.534167 0 0 0 0 0.645967 0 0 0 0 0.749167 0 0 0 0.6 0"/>
<feBlend mode="normal" in2="shape" result="effect1_innerShadow_17048_1674"/>
<feColorMatrix in="SourceAlpha" type="matrix" values="0 0 0 0 0 0 0 0 0 0 0 0 0 0 0 0 0 0 127 0" result="hardAlpha"/>
<feOffset dx="-1" dy="-2"/>
<feGaussianBlur stdDeviation="1"/>
<feComposite in2="hardAlpha" operator="arithmetic" k2="-1" k3="1"/>
<feColorMatrix type="matrix" values="0 0 0 0 0.533333 0 0 0 0 0.647059 0 0 0 0 0.74902 0 0 0 0.3 0"/>
<feBlend mode="normal" in2="effect1_innerShadow_17048_1674" result="effect2_innerShadow_17048_1674"/>
<feColorMatrix in="SourceAlpha" type="matrix" values="0 0 0 0 0 0 0 0 0 0 0 0 0 0 0 0 0 0 127 0" result="hardAlpha"/>
<feOffset dx="-1" dy="-2"/>
<feGaussianBlur stdDeviation="1.5"/>
<feComposite in2="hardAlpha" operator="arithmetic" k2="-1" k3="1"/>
<feColorMatrix type="matrix" values="0 0 0 0 1 0 0 0 0 1 0 0 0 0 1 0 0 0 0.4 0"/>
<feBlend mode="screen" in2="effect2_innerShadow_17048_1674" result="effect3_innerShadow_17048_1674"/>
</filter>
<filter id="filter1_i_17048_1674" x="6.70312" y="0.359375" width="10.9438" height="10.9018" filterUnits="userSpaceOnUse" color-interpolation-filters="sRGB">
<feFlood flood-opacity="0" result="BackgroundImageFix"/>
<feBlend mode="normal" in="SourceGraphic" in2="BackgroundImageFix" result="shape"/>
<feColorMatrix in="SourceAlpha" type="matrix" values="0 0 0 0 0 0 0 0 0 0 0 0 0 0 0 0 0 0 127 0" result="hardAlpha"/>
<feOffset dx="1.35294" dy="1.35294"/>
<feGaussianBlur stdDeviation="2.02941"/>
<feComposite in2="hardAlpha" operator="arithmetic" k2="-1" k3="1"/>
<feColorMatrix type="matrix" values="0 0 0 0 0 0 0 0 0 0.37028 0 0 0 0 0.74056 0 0 0 0.4 0"/>
<feBlend mode="multiply" in2="shape" result="effect1_innerShadow_17048_1674"/>
</filter>
<filter id="filter2_i_17048_1674" x="16.8281" y="17.3359" width="6.68107" height="6.65763" filterUnits="userSpaceOnUse" color-interpolation-filters="sRGB">
<feFlood flood-opacity="0" result="BackgroundImageFix"/>
<feBlend mode="normal" in="SourceGraphic" in2="BackgroundImageFix" result="shape"/>
<feColorMatrix in="SourceAlpha" type="matrix" values="0 0 0 0 0 0 0 0 0 0 0 0 0 0 0 0 0 0 127 0" result="hardAlpha"/>
<feOffset dx="1.35294" dy="1.35294"/>
<feGaussianBlur stdDeviation="2.02941"/>
<feComposite in2="hardAlpha" operator="arithmetic" k2="-1" k3="1"/>
<feColorMatrix type="matrix" values="0 0 0 0 0 0 0 0 0 0.37028 0 0 0 0 0.74056 0 0 0 0.4 0"/>
<feBlend mode="multiply" in2="shape" result="effect1_innerShadow_17048_1674"/>
</filter>
<filter id="filter3_i_17048_1674" x="8.83594" y="17.3359" width="6.68107" height="6.65763" filterUnits="userSpaceOnUse" color-interpolation-filters="sRGB">
<feFlood flood-opacity="0" result="BackgroundImageFix"/>
<feBlend mode="normal" in="SourceGraphic" in2="BackgroundImageFix" result="shape"/>
<feColorMatrix in="SourceAlpha" type="matrix" values="0 0 0 0 0 0 0 0 0 0 0 0 0 0 0 0 0 0 127 0" result="hardAlpha"/>
<feOffset dx="1.35294" dy="1.35294"/>
<feGaussianBlur stdDeviation="2.02941"/>
<feComposite in2="hardAlpha" operator="arithmetic" k2="-1" k3="1"/>
<feColorMatrix type="matrix" values="0 0 0 0 0 0 0 0 0 0.37028 0 0 0 0 0.74056 0 0 0 0.4 0"/>
<feBlend mode="multiply" in2="shape" result="effect1_innerShadow_17048_1674"/>
</filter>
<filter id="filter4_i_17048_1674" x="0.84375" y="17.3359" width="6.68107" height="6.65763" filterUnits="userSpaceOnUse" color-interpolation-filters="sRGB">
<feFlood flood-opacity="0" result="BackgroundImageFix"/>
<feBlend mode="normal" in="SourceGraphic" in2="BackgroundImageFix" result="shape"/>
<feColorMatrix in="SourceAlpha" type="matrix" values="0 0 0 0 0 0 0 0 0 0 0 0 0 0 0 0 0 0 127 0" result="hardAlpha"/>
<feOffset dx="1.35294" dy="1.35294"/>
<feGaussianBlur stdDeviation="2.02941"/>
<feComposite in2="hardAlpha" operator="arithmetic" k2="-1" k3="1"/>
<feColorMatrix type="matrix" values="0 0 0 0 0 0 0 0 0 0.37028 0 0 0 0 0.74056 0 0 0 0.4 0"/>
<feBlend mode="multiply" in2="shape" result="effect1_innerShadow_17048_1674"/>
</filter>
<linearGradient id="paint0_linear_17048_1674" x1="7.15519" y1="9.9082" x2="18.0285" y2="5.45899" gradientUnits="userSpaceOnUse">
<stop stop-color="#0050EC"/>
<stop offset="1" stop-color="#39C7EC"/>
</linearGradient>
<linearGradient id="paint1_linear_17048_1674" x1="17.0793" y1="22.6406" x2="23.12" y2="20.1688" gradientUnits="userSpaceOnUse">
<stop stop-color="#0050EC"/>
<stop offset="1" stop-color="#39C7EC"/>
</linearGradient>
<linearGradient id="paint2_linear_17048_1674" x1="9.08709" y1="22.6406" x2="15.1278" y2="20.1688" gradientUnits="userSpaceOnUse">
<stop stop-color="#0050EC"/>
<stop offset="1" stop-color="#39C7EC"/>
</linearGradient>
<linearGradient id="paint3_linear_17048_1674" x1="1.0949" y1="22.6406" x2="7.13565" y2="20.1688" gradientUnits="userSpaceOnUse">
<stop stop-color="#0050EC"/>
<stop offset="1" stop-color="#39C7EC"/>
</linearGradient>
</defs>
</svg>
