<svg width="35" height="35" viewBox="0 0 35 35" fill="none" xmlns="http://www.w3.org/2000/svg">
<g filter="url(#filter0_i_16848_1146)">
<path d="M11.7497 21.9993C12.0755 21.9993 12.3488 21.8913 12.5696 21.6753C12.7904 21.4593 12.9004 21.1923 12.8996 20.8743C12.8996 20.5556 12.7892 20.2886 12.5685 20.0734C12.3477 19.8581 12.0747 19.7502 11.7497 19.7494C11.4239 19.7494 11.151 19.8574 10.9309 20.0734C10.7109 20.2894 10.6005 20.5564 10.5998 20.8743C10.5998 21.1931 10.7102 21.4604 10.9309 21.6764C11.1517 21.8924 11.4246 22 11.7497 21.9993ZM11.7497 18.6245C12.0755 18.6245 12.3488 18.5165 12.5696 18.3005C12.7904 18.0845 12.9004 17.8175 12.8996 17.4995V14.1247C12.8996 13.806 12.7892 13.539 12.5685 13.3237C12.3477 13.1085 12.0747 13.0005 11.7497 12.9998C11.4239 12.9998 11.151 13.1078 10.9309 13.3237C10.7109 13.5397 10.6005 13.8067 10.5998 14.1247V17.4995C10.5998 17.8183 10.7102 18.0856 10.9309 18.3016C11.1517 18.5176 11.4246 18.6252 11.7497 18.6245ZM16.3495 20.8743H23.2491C23.5749 20.8743 23.8482 20.7663 24.069 20.5504C24.2898 20.3344 24.3998 20.0674 24.399 19.7494C24.399 19.4307 24.2886 19.1637 24.0678 18.9484C23.8471 18.7332 23.5741 18.6252 23.2491 18.6245H16.3495C16.0236 18.6245 15.7507 18.7325 15.5307 18.9484C15.3107 19.1644 15.2003 19.4314 15.1995 19.7494C15.1995 20.0681 15.3099 20.3355 15.5307 20.5515C15.7515 20.7675 16.0244 20.8751 16.3495 20.8743ZM16.3495 16.3746H23.2491C23.5749 16.3746 23.8482 16.2666 24.069 16.0506C24.2898 15.8346 24.3998 15.5676 24.399 15.2496C24.399 14.9309 24.2886 14.6639 24.0678 14.4487C23.8471 14.2334 23.5741 14.1255 23.2491 14.1247H16.3495C16.0236 14.1247 15.7507 14.2327 15.5307 14.4487C15.3107 14.6647 15.2003 14.9317 15.1995 15.2496C15.1995 15.5684 15.3099 15.8357 15.5307 16.0517C15.7515 16.2677 16.0244 16.3753 16.3495 16.3746ZM8.29988 26.499C7.66741 26.499 7.12617 26.2789 6.67616 25.8387C6.22615 25.3985 6.00077 24.8686 6 24.2492V10.7499C6 10.1312 6.22539 9.60169 6.67616 9.16146C7.12694 8.72124 7.66818 8.50075 8.29988 8.5H26.6989C27.3314 8.5 27.873 8.72049 28.3238 9.16146C28.7745 9.60244 28.9995 10.1319 28.9988 10.7499V24.2492C28.9988 24.8679 28.7738 25.3977 28.3238 25.8387C27.8738 26.2797 27.3321 26.4998 26.6989 26.499H8.29988Z" fill="white"/>
</g>
<defs>
<filter id="filter0_i_16848_1146" x="6" y="8.5" width="24.352" height="19.352" filterUnits="userSpaceOnUse" color-interpolation-filters="sRGB">
<feFlood flood-opacity="0" result="BackgroundImageFix"/>
<feBlend mode="normal" in="SourceGraphic" in2="BackgroundImageFix" result="shape"/>
<feColorMatrix in="SourceAlpha" type="matrix" values="0 0 0 0 0 0 0 0 0 0 0 0 0 0 0 0 0 0 127 0" result="hardAlpha"/>
<feOffset dx="1.35294" dy="1.35294"/>
<feGaussianBlur stdDeviation="2.02941"/>
<feComposite in2="hardAlpha" operator="arithmetic" k2="-1" k3="1"/>
<feColorMatrix type="matrix" values="0 0 0 0 0 0 0 0 0 0.37028 0 0 0 0 0.74056 0 0 0 0.4 0"/>
<feBlend mode="multiply" in2="shape" result="effect1_innerShadow_16848_1146"/>
</filter>
</defs>
</svg>
