<svg width="18" height="18" viewBox="0 0 18 18" fill="none" xmlns="http://www.w3.org/2000/svg">
<g filter="url(#filter0_i_17048_1660)">
<path d="M5.16382 11.5657C5.08952 11.1137 4.69651 10.7873 4.24484 10.8033C2.95263 10.849 1.67174 10.8988 0.853319 10.9313C0.361004 10.9509 -0.0219031 11.3672 0.000974068 11.8662C0.0594109 13.1409 0.20443 15.468 0.521887 16.8179C0.66748 17.437 1.20557 17.7854 1.8316 17.8318C2.88293 17.9097 4.98333 18.0035 9.00098 18.0035C13.0186 18.0035 15.119 17.9097 16.1704 17.8318C16.7964 17.7854 17.3345 17.437 17.4801 16.8179C17.7975 15.468 17.9425 13.1409 18.001 11.8662C18.0239 11.3672 17.6409 10.9509 17.1486 10.9313C16.3302 10.8988 15.0493 10.849 13.7571 10.8033C13.3054 10.7873 12.9124 11.1137 12.8381 11.5657L12.7316 12.2139C12.6592 12.6545 12.2832 12.9775 11.8426 12.9775H6.15938C5.7188 12.9775 5.3428 12.6545 5.27037 12.2139L5.16382 11.5657Z" fill="#D0E2F3"/>
<path d="M10.943 5.19996C11.5998 5.21644 12.1319 5.24061 12.5603 5.26754C13.412 5.32109 13.7811 6.12573 13.2624 6.80183C12.9149 7.25483 12.4489 7.8291 11.8313 8.53544C10.9208 9.57664 10.23 10.1874 9.75881 10.5406C9.29554 10.888 8.70507 10.888 8.24178 10.5407C7.77052 10.1874 7.07969 9.57671 6.16936 8.53544C5.55199 7.82927 5.08607 7.25511 4.73859 6.80216C4.21982 6.12593 4.58897 5.32106 5.44087 5.26751C5.86923 5.24059 6.40114 5.21643 7.05776 5.19995C7.05543 4.89982 7.05411 4.56964 7.05411 4.2068C7.05411 2.79564 7.0741 1.87857 7.09552 1.30105C7.11677 0.727844 7.39314 0.203751 7.95686 0.0907519C8.22098 0.0378065 8.5628 0 9.00039 0C9.43799 0 9.7798 0.0378065 10.0439 0.090752C10.6076 0.203751 10.884 0.727844 10.9053 1.30105C10.9267 1.87857 10.9467 2.79564 10.9467 4.2068C10.9467 4.56965 10.9454 4.89982 10.943 5.19996Z" fill="url(#paint0_linear_17048_1660)"/>
</g>
<defs>
<filter id="filter0_i_17048_1660" x="0" y="0" width="19.3549" height="19.3568" filterUnits="userSpaceOnUse" color-interpolation-filters="sRGB">
<feFlood flood-opacity="0" result="BackgroundImageFix"/>
<feBlend mode="normal" in="SourceGraphic" in2="BackgroundImageFix" result="shape"/>
<feColorMatrix in="SourceAlpha" type="matrix" values="0 0 0 0 0 0 0 0 0 0 0 0 0 0 0 0 0 0 127 0" result="hardAlpha"/>
<feOffset dx="1.35294" dy="1.35294"/>
<feGaussianBlur stdDeviation="2.02941"/>
<feComposite in2="hardAlpha" operator="arithmetic" k2="-1" k3="1"/>
<feColorMatrix type="matrix" values="0 0 0 0 0.216667 0 0 0 0 0.216667 0 0 0 0 0.216667 0 0 0 0.4 0"/>
<feBlend mode="multiply" in2="shape" result="effect1_innerShadow_17048_1660"/>
</filter>
<linearGradient id="paint0_linear_17048_1660" x1="4.92426" y1="-7.12928e-07" x2="15.6063" y2="3.62661" gradientUnits="userSpaceOnUse">
<stop stop-color="#0050EC"/>
<stop offset="1" stop-color="#39C7EC"/>
</linearGradient>
</defs>
</svg>
