<svg width="11" height="11" viewBox="0 0 11 11" fill="none" xmlns="http://www.w3.org/2000/svg">
<path d="M8.05504 8.4254C7.98663 8.49381 7.90796 8.53143 7.81903 8.53828C7.7301 8.53143 7.65143 8.49381 7.58302 8.4254L5.44869 6.29107L3.34515 8.39462C3.27674 8.46303 3.19807 8.50065 3.10914 8.50749C3.02021 8.50065 2.94154 8.46303 2.87313 8.39462L2.54478 8.06626C2.47637 7.99785 2.44216 7.9226 2.44216 7.84051C2.44216 7.74474 2.47637 7.66265 2.54478 7.59425L4.64832 5.4907L2.57556 3.41794C2.50715 3.34953 2.47295 3.27428 2.47295 3.19219C2.47295 3.09642 2.50715 3.01433 2.57556 2.94592L2.9347 2.58678C3.00311 2.51837 3.08178 2.48759 3.17071 2.49443C3.25964 2.48759 3.33831 2.51838 3.40672 2.58678L5.47948 4.65954L7.59328 2.54574C7.66169 2.47733 7.74036 2.44655 7.82929 2.45339C7.91822 2.44655 7.99689 2.47733 8.0653 2.54574L8.39366 2.8741C8.46206 2.9425 8.49627 3.02459 8.49627 3.12037C8.49627 3.20245 8.46206 3.2777 8.39366 3.34611L6.27985 5.45992L8.41418 7.59425C8.48259 7.66265 8.51679 7.74474 8.51679 7.84051C8.51679 7.9226 8.48259 7.99785 8.41418 8.06626L8.05504 8.4254Z" fill="white"/>
</svg>
