<svg width="111" height="69" viewBox="0 0 111 69" fill="none" xmlns="http://www.w3.org/2000/svg">
<path d="M78.4111 41.3937L82.453 28.1819H86L80.0334 45.2722C79.8959 45.6377 79.7172 46.0351 79.4972 46.4646C79.2772 46.894 78.9885 47.3006 78.6311 47.6843C78.2828 48.0772 77.8474 48.3924 77.325 48.63C76.8026 48.8767 76.1702 49 75.4278 49C75.1345 49 74.8503 48.9726 74.5754 48.9178C74.3096 48.8721 74.0575 48.8218 73.8192 48.767L73.8055 46.2453C73.8972 46.2544 74.0071 46.2635 74.1355 46.2727C74.2729 46.2818 74.3829 46.2864 74.4654 46.2864C75.0153 46.2864 75.4736 46.2179 75.8402 46.0808C76.2068 45.9529 76.5047 45.7428 76.7338 45.4504C76.9721 45.158 77.1738 44.7651 77.3387 44.2717L78.4111 41.3937ZM76.1289 28.1819L79.6622 39.2831L80.2533 42.7642L77.9574 43.3535L72.5544 28.1819H76.1289Z" fill="white"/>
<path d="M67.9901 28.1819V30.8133H60.6486V28.1819H67.9901ZM61.4323 28.1819V43.0109H58.119V28.1819H61.4323ZM70.5885 28.1819V43.0109H67.2614V28.1819H70.5885Z" fill="white"/>
<path d="M45.3471 38.1867L51.19 28.1819H54.5033V43.0109H51.19V32.9924L45.3471 43.0109H42.0338V28.1819H45.3471V38.1867Z" fill="white"/>
<path d="M39.1467 21.1238L39.8066 23.0014C38.8626 23.3212 38.2119 23.8877 37.8544 24.7009C37.5061 25.514 37.332 26.446 37.332 27.4967V30.3199C37.332 31.2336 37.1349 32.0651 36.7408 32.8143C36.3559 33.5635 35.7418 34.1574 34.8986 34.5959C34.0554 35.0345 32.9509 35.2538 31.5853 35.2538V33.3625C32.5293 33.3625 33.2076 33.0884 33.62 32.5402C34.0325 31.992 34.2387 31.2519 34.2387 30.3199V27.4967C34.2387 26.5373 34.3853 25.6419 34.6786 24.8105C34.9811 23.9699 35.4897 23.2344 36.2046 22.604C36.9195 21.9644 37.9002 21.471 39.1467 21.1238ZM39.8066 46.1082L39.1467 47.9995C37.9002 47.6432 36.9195 47.1452 36.2046 46.5057C35.4897 45.8752 34.9811 45.1397 34.6786 44.2991C34.3853 43.4677 34.2387 42.5723 34.2387 41.6129V38.8171C34.2387 38.1867 34.147 37.6476 33.9637 37.1999C33.7804 36.7431 33.4917 36.3913 33.0976 36.1446C32.7126 35.8888 32.2085 35.7609 31.5853 35.7609V33.8559C32.9509 33.8559 34.0554 34.0797 34.8986 34.5274C35.7418 34.966 36.3559 35.5599 36.7408 36.3091C37.1349 37.0491 37.332 37.8852 37.332 38.8171V41.6129C37.332 42.3165 37.4053 42.9652 37.5519 43.5591C37.7078 44.1621 37.9644 44.6829 38.3218 45.1215C38.6885 45.56 39.1834 45.8889 39.8066 46.1082Z" fill="white"/>
<path d="M30.568 20V22.5491H28.3133V44.9159H30.568V47.4787H25V20H30.568Z" fill="white"/>
</svg>
