<svg width="35" height="36" viewBox="0 0 35 36" fill="none" xmlns="http://www.w3.org/2000/svg">
<g filter="url(#filter0_i_16853_1127)">
<path d="M17.4999 14.9569C20.4414 14.9569 22.826 12.5723 22.826 9.63077C22.826 6.68926 20.4414 4.30469 17.4999 4.30469C14.5584 4.30469 12.1738 6.68926 12.1738 9.63077C12.1738 12.5723 14.5584 14.9569 17.4999 14.9569Z" fill="white"/>
</g>
<g filter="url(#filter1_i_16853_1127)">
<path d="M8.36963 29.6315V31.6968H26.6305V29.6315C26.6305 25.7825 26.6305 23.8579 26.1671 22.3398C25.5494 20.3157 24.3644 18.7075 22.8729 17.8691C21.7543 17.2402 20.3362 17.2402 17.5001 17.2402C14.6639 17.2402 13.2458 17.2402 12.1272 17.8691C10.6357 18.7075 9.45075 20.3157 8.833 22.3398C8.36963 23.8579 8.36963 25.7825 8.36963 29.6315Z" fill="white"/>
</g>
<defs>
<filter id="filter0_i_16853_1127" x="12.1738" y="4.30469" width="12.0053" height="12.0053" filterUnits="userSpaceOnUse" color-interpolation-filters="sRGB">
<feFlood flood-opacity="0" result="BackgroundImageFix"/>
<feBlend mode="normal" in="SourceGraphic" in2="BackgroundImageFix" result="shape"/>
<feColorMatrix in="SourceAlpha" type="matrix" values="0 0 0 0 0 0 0 0 0 0 0 0 0 0 0 0 0 0 127 0" result="hardAlpha"/>
<feOffset dx="1.35294" dy="1.35294"/>
<feGaussianBlur stdDeviation="2.02941"/>
<feComposite in2="hardAlpha" operator="arithmetic" k2="-1" k3="1"/>
<feColorMatrix type="matrix" values="0 0 0 0 0 0 0 0 0 0.37028 0 0 0 0 0.74056 0 0 0 0.4 0"/>
<feBlend mode="multiply" in2="shape" result="effect1_innerShadow_16853_1127"/>
</filter>
<filter id="filter1_i_16853_1127" x="8.36963" y="17.2402" width="19.6137" height="15.809" filterUnits="userSpaceOnUse" color-interpolation-filters="sRGB">
<feFlood flood-opacity="0" result="BackgroundImageFix"/>
<feBlend mode="normal" in="SourceGraphic" in2="BackgroundImageFix" result="shape"/>
<feColorMatrix in="SourceAlpha" type="matrix" values="0 0 0 0 0 0 0 0 0 0 0 0 0 0 0 0 0 0 127 0" result="hardAlpha"/>
<feOffset dx="1.35294" dy="1.35294"/>
<feGaussianBlur stdDeviation="2.02941"/>
<feComposite in2="hardAlpha" operator="arithmetic" k2="-1" k3="1"/>
<feColorMatrix type="matrix" values="0 0 0 0 0 0 0 0 0 0.37028 0 0 0 0 0.74056 0 0 0 0.4 0"/>
<feBlend mode="multiply" in2="shape" result="effect1_innerShadow_16853_1127"/>
</filter>
</defs>
</svg>
